<svg width="29" height="29" viewBox="0 0 29 29" fill="none" xmlns="http://www.w3.org/2000/svg">
<path d="M14.7895 22.1783C15.0966 22.1782 15.4007 22.1176 15.6843 21.9998C15.968 21.882 16.2256 21.7094 16.4424 21.4919L23.6258 14.2874C24.94 12.9733 25.6783 11.1908 25.6783 9.33231C25.6783 7.47378 24.94 5.69137 23.6258 4.37719C22.3117 3.06301 20.5293 2.32471 18.6707 2.32471C16.8122 2.32471 15.0298 3.06301 13.7156 4.37719L6.52045 11.5723C6.08261 12.01 5.83656 12.6038 5.83643 13.2229V21.011C5.83643 21.3206 5.95941 21.6175 6.17832 21.8364C6.39722 22.0553 6.69413 22.1783 7.00371 22.1783H14.7895Z" stroke="#FE9A00" stroke-opacity="0.5" stroke-width="2.33457" stroke-linecap="round" stroke-linejoin="round"/>
<path d="M18.6765 9.33838L2.33447 25.6804" stroke="#FE9A00" stroke-opacity="0.5" stroke-width="2.33457" stroke-linecap="round" stroke-linejoin="round"/>
<path d="M20.4274 17.5093H10.5055" stroke="#FE9A00" stroke-opacity="0.5" stroke-width="2.33457" stroke-linecap="round" stroke-linejoin="round"/>
</svg>
