<svg width="15" height="15" viewBox="0 0 15 15" fill="none" xmlns="http://www.w3.org/2000/svg">
<path d="M7.01786 0.8631C7.04707 0.804074 7.0922 0.754388 7.14816 0.71965C7.20411 0.684912 7.26866 0.666504 7.33452 0.666504C7.40038 0.666504 7.46493 0.684912 7.52089 0.71965C7.57684 0.754388 7.62197 0.804074 7.65119 0.8631L9.19119 3.98243C9.29264 4.18774 9.4424 4.36537 9.62761 4.50007C9.81281 4.63477 10.0279 4.72251 10.2545 4.75577L13.6985 5.25977C13.7638 5.26922 13.8251 5.29675 13.8755 5.33923C13.9259 5.38172 13.9635 5.43747 13.9839 5.50017C14.0043 5.56288 14.0067 5.63004 13.9909 5.69406C13.9751 5.75808 13.9417 5.8164 13.8945 5.86243L11.4039 8.28777C11.2396 8.44783 11.1167 8.64542 11.0457 8.86352C10.9748 9.08162 10.9579 9.31369 10.9965 9.53977L11.5845 12.9664C11.596 13.0317 11.589 13.0988 11.5642 13.1602C11.5394 13.2216 11.4978 13.2748 11.4442 13.3138C11.3906 13.3527 11.3272 13.3758 11.2611 13.3804C11.195 13.385 11.129 13.3709 11.0705 13.3398L7.99186 11.7211C7.789 11.6146 7.56331 11.5589 7.33419 11.5589C7.10507 11.5589 6.87938 11.6146 6.67652 11.7211L3.59852 13.3398C3.54008 13.3707 3.47412 13.3846 3.40816 13.3799C3.34219 13.3752 3.27887 13.3521 3.22539 13.3132C3.1719 13.2743 3.13041 13.2212 3.10563 13.1599C3.08084 13.0986 3.07376 13.0316 3.08519 12.9664L3.67252 9.54043C3.71132 9.31425 3.69451 9.08203 3.62355 8.8638C3.55258 8.64556 3.4296 8.44787 3.26519 8.28777L0.774523 5.8631C0.726919 5.81712 0.693185 5.7587 0.677165 5.69448C0.661144 5.63027 0.663481 5.56284 0.683909 5.49989C0.704337 5.43694 0.742034 5.38099 0.792707 5.33842C0.843381 5.29585 0.904992 5.26837 0.970523 5.2591L4.41386 4.75577C4.64069 4.72277 4.85612 4.63514 5.04158 4.50042C5.22704 4.36571 5.37699 4.18795 5.47852 3.98243L7.01786 0.8631Z" stroke="#FE9A00" stroke-width="1.33333" stroke-linecap="round" stroke-linejoin="round"/>
</svg>
