<svg width="48" height="48" viewBox="0 0 48 48" fill="none" xmlns="http://www.w3.org/2000/svg">
<path d="M40.72 4.72009L43.28 7.28009C43.5098 7.50373 43.6925 7.77116 43.8172 8.06658C43.9419 8.362 44.0062 8.67942 44.0062 9.00009C44.0062 9.32076 43.9419 9.63818 43.8172 9.9336C43.6925 10.229 43.5098 10.4964 43.28 10.7201L10.72 43.2801C10.4963 43.5099 10.2289 43.6926 9.93348 43.8173C9.63806 43.942 9.32064 44.0063 8.99997 44.0063C8.6793 44.0063 8.36188 43.942 8.06646 43.8173C7.77104 43.6926 7.50361 43.5099 7.27997 43.2801L4.71997 40.7201C4.4926 40.4951 4.31211 40.2272 4.18893 39.9319C4.06574 39.6367 4.00232 39.32 4.00232 39.0001C4.00232 38.6802 4.06574 38.3635 4.18893 38.0682C4.31211 37.773 4.4926 37.5051 4.71997 37.2801L37.28 4.72009C37.505 4.49272 37.7729 4.31223 38.0681 4.18905C38.3633 4.06587 38.6801 4.00244 39 4.00244C39.3199 4.00244 39.6366 4.06587 39.9318 4.18905C40.2271 4.31223 40.4949 4.49272 40.72 4.72009Z" stroke="#BB4D00" stroke-opacity="0.5" stroke-width="4" stroke-linecap="round" stroke-linejoin="round"/>
<path d="M28 14L34 20" stroke="#BB4D00" stroke-opacity="0.5" stroke-width="4" stroke-linecap="round" stroke-linejoin="round"/>
<path d="M10 12V20" stroke="#BB4D00" stroke-opacity="0.5" stroke-width="4" stroke-linecap="round" stroke-linejoin="round"/>
<path d="M38 28V36" stroke="#BB4D00" stroke-opacity="0.5" stroke-width="4" stroke-linecap="round" stroke-linejoin="round"/>
<path d="M20 4V8" stroke="#BB4D00" stroke-opacity="0.5" stroke-width="4" stroke-linecap="round" stroke-linejoin="round"/>
<path d="M14 16H6" stroke="#BB4D00" stroke-opacity="0.5" stroke-width="4" stroke-linecap="round" stroke-linejoin="round"/>
<path d="M42 32H34" stroke="#BB4D00" stroke-opacity="0.5" stroke-width="4" stroke-linecap="round" stroke-linejoin="round"/>
<path d="M22 6H18" stroke="#BB4D00" stroke-opacity="0.5" stroke-width="4" stroke-linecap="round" stroke-linejoin="round"/>
</svg>
