<svg width="217" height="217" viewBox="0 0 217 217" fill="none" xmlns="http://www.w3.org/2000/svg">
<path opacity="0.3" d="M71.6981 93.3889L93.1506 93.4103L93.2837 72.0354L108.5 87.4671L123.578 72.6649L123.578 93.2159L144.418 93.2159L129.5 108.467L144.685 123.621L123.574 123.841L123.757 145.226L108.5 130.467L92.5 145.226L93 123.841L71.4388 123.445L86.5 108.467L71.6981 93.3889Z" stroke="#FFB900" stroke-opacity="0.5" stroke-width="0.48"/>
<path opacity="0.2" d="M54.0633 54.0626H162.19V162.189H54.0633V54.0626Z" stroke="#FFB900" stroke-opacity="0.5" stroke-width="0.288"/>
<path opacity="0.2" d="M108.127 31.6689L184.584 108.126L108.127 184.583L31.6696 108.126L108.127 31.6689Z" stroke="#FFB900" stroke-opacity="0.5" stroke-width="0.288"/>
<path opacity="0.2" d="M108.5 86.999L130 108.499L108.5 129.999L87 108.499L108.5 86.999Z" stroke="#FFB900" stroke-opacity="0.5" stroke-width="0.288"/>
<path opacity="0.2" d="M93.2028 93.2015H123.608V123.607H93.2028V93.2015Z" stroke="#FFB900" stroke-opacity="0.5" stroke-width="0.288"/>
<path opacity="0.3" d="M108.735 17.3598C58.3668 17.3598 17.5351 58.1914 17.5351 108.56C17.5351 158.928 58.3668 199.76 108.735 199.76C159.103 199.76 199.935 158.928 199.935 108.56C199.935 58.1914 159.103 17.3598 108.735 17.3598Z" stroke="#FFB900" stroke-opacity="0.5" stroke-width="0.48"/>
<path opacity="0.4" d="M158.904 152.477C183.542 124.72 181.013 82.2468 153.257 57.6093C125.501 32.9719 83.0272 35.5002 58.3897 63.2565C33.7523 91.0128 36.2806 133.486 64.0369 158.124C91.7931 182.761 134.267 180.233 158.904 152.477Z" stroke="#FFB900" stroke-opacity="0.5" stroke-width="0.48"/>
<path opacity="0.2" d="M194.58 108.114C194.58 60.3963 155.897 21.7137 108.18 21.7137C60.4625 21.7137 21.7799 60.3963 21.7799 108.114C21.7799 155.831 60.4625 194.514 108.18 194.514C155.897 194.514 194.58 155.831 194.58 108.114Z" stroke="#FFB900" stroke-opacity="0.5" stroke-width="0.288"/>
<path opacity="0.5" d="M110.974 111.08C112.446 109.553 112.401 107.122 110.875 105.65C109.348 104.178 106.917 104.223 105.445 105.749C103.973 107.276 104.017 109.707 105.544 111.179C107.071 112.651 109.502 112.607 110.974 111.08Z" fill="#FFB900" fill-opacity="0.5"/>
<path opacity="0.4" d="M110.98 184.454C110.98 183.129 109.906 182.054 108.58 182.054C107.255 182.054 106.18 183.129 106.18 184.454C106.18 185.78 107.255 186.854 108.58 186.854C109.906 186.854 110.98 185.78 110.98 184.454Z" fill="#FFB900" fill-opacity="0.5"/>
<path opacity="0.3" d="M103.78 184.454H113.38" stroke="#FFB900" stroke-opacity="0.5" stroke-width="0.48"/>
<path opacity="0.4" d="M110.98 32.1137C110.98 30.7882 109.906 29.7137 108.58 29.7137C107.255 29.7137 106.18 30.7882 106.18 32.1137C106.18 33.4392 107.255 34.5137 108.58 34.5137C109.906 34.5137 110.98 33.4392 110.98 32.1137Z" fill="#FFB900" fill-opacity="0.5"/>
<path opacity="0.3" d="M103.78 32.1133H113.38" stroke="#FFB900" stroke-opacity="0.5" stroke-width="0.48"/>
<path opacity="0.4" d="M56.4176 163.843C57.3548 162.905 57.3548 161.386 56.4176 160.448C55.4803 159.511 53.9607 159.511 53.0235 160.448C52.0862 161.386 52.0862 162.905 53.0235 163.843C53.9607 164.78 55.4803 164.78 56.4176 163.843Z" fill="#FFB900" fill-opacity="0.5"/>
<path opacity="0.3" d="M51.3261 158.751L58.1143 165.539" stroke="#FFB900" stroke-opacity="0.5" stroke-width="0.48"/>
<path opacity="0.4" d="M164.139 56.1219C165.076 55.1846 165.076 53.665 164.139 52.7277C163.201 51.7905 161.682 51.7905 160.745 52.7277C159.807 53.665 159.807 55.1846 160.745 56.1219C161.682 57.0591 163.201 57.0591 164.139 56.1219Z" fill="#FFB900" fill-opacity="0.5"/>
<path opacity="0.3" d="M159.047 51.0303L165.835 57.8185" stroke="#FFB900" stroke-opacity="0.5" stroke-width="0.48"/>
<path opacity="0.4" d="M164.139 160.448C163.201 159.511 161.682 159.511 160.745 160.448C159.807 161.385 159.807 162.905 160.745 163.842C161.682 164.779 163.201 164.779 164.139 163.842C165.076 162.905 165.076 161.385 164.139 160.448Z" fill="#FFB900" fill-opacity="0.5"/>
<path opacity="0.3" d="M159.047 165.539L165.835 158.751" stroke="#FFB900" stroke-opacity="0.5" stroke-width="0.48"/>
<path opacity="0.4" d="M56.4176 52.7272C55.4803 51.7899 53.9607 51.7899 53.0234 52.7272C52.0862 53.6644 52.0862 55.184 53.0234 56.1213C53.9607 57.0586 55.4803 57.0586 56.4176 56.1213C57.3548 55.184 57.3548 53.6644 56.4176 52.7272Z" fill="#FFB900" fill-opacity="0.5"/>
<path opacity="0.3" d="M51.3261 57.8184L58.1143 51.0301" stroke="#FFB900" stroke-opacity="0.5" stroke-width="0.48"/>
<path opacity="0.4" d="M184.75 105.884C183.424 105.884 182.35 106.958 182.35 108.284C182.35 109.609 183.424 110.684 184.75 110.684C186.075 110.684 187.15 109.609 187.15 108.284C187.15 106.958 186.075 105.884 184.75 105.884Z" fill="#FFB900" fill-opacity="0.5"/>
<path opacity="0.3" d="M184.75 113.084V103.484" stroke="#FFB900" stroke-opacity="0.5" stroke-width="0.48"/>
<path opacity="0.4" d="M32.4091 105.884C31.0837 105.884 30.0091 106.958 30.0091 108.284C30.0091 109.609 31.0837 110.684 32.4091 110.684C33.7346 110.684 34.8091 109.609 34.8091 108.284C34.8091 106.958 33.7346 105.884 32.4091 105.884Z" fill="#FFB900" fill-opacity="0.5"/>
<path opacity="0.3" d="M32.4091 113.084V103.484" stroke="#FFB900" stroke-opacity="0.5" stroke-width="0.48"/>
</svg>
