<svg width="16" height="16" viewBox="0 0 16 16" fill="none" xmlns="http://www.w3.org/2000/svg">
<path d="M13.5733 1.5732L14.4267 2.42653C14.5033 2.50108 14.5642 2.59022 14.6057 2.6887C14.6473 2.78717 14.6687 2.89298 14.6687 2.99987C14.6687 3.10676 14.6473 3.21256 14.6057 3.31104C14.5642 3.40951 14.5033 3.49865 14.4267 3.5732L3.57332 14.4265C3.49878 14.5031 3.40963 14.564 3.31116 14.6056C3.21269 14.6472 3.10688 14.6686 2.99999 14.6686C2.8931 14.6686 2.78729 14.6472 2.68882 14.6056C2.59035 14.564 2.5012 14.5031 2.42666 14.4265L1.57332 13.5732C1.49753 13.4982 1.43737 13.4089 1.39631 13.3105C1.35525 13.2121 1.33411 13.1065 1.33411 12.9999C1.33411 12.8932 1.35525 12.7877 1.39631 12.6892C1.43737 12.5908 1.49753 12.5015 1.57332 12.4265L12.4267 1.5732C12.5017 1.49741 12.591 1.43725 12.6894 1.39619C12.7878 1.35513 12.8934 1.33398 13 1.33398C13.1066 1.33398 13.2122 1.35513 13.3106 1.39619C13.409 1.43725 13.4983 1.49741 13.5733 1.5732Z" stroke="#BB4D00" stroke-width="1.33333" stroke-linecap="round" stroke-linejoin="round"/>
<path d="M9.33331 4.6665L11.3333 6.6665" stroke="#BB4D00" stroke-width="1.33333" stroke-linecap="round" stroke-linejoin="round"/>
<path d="M3.33331 4V6.66667" stroke="#BB4D00" stroke-width="1.33333" stroke-linecap="round" stroke-linejoin="round"/>
<path d="M12.6667 9.3335V12.0002" stroke="#BB4D00" stroke-width="1.33333" stroke-linecap="round" stroke-linejoin="round"/>
<path d="M6.66669 1.3335V2.66683" stroke="#BB4D00" stroke-width="1.33333" stroke-linecap="round" stroke-linejoin="round"/>
<path d="M4.66667 5.3335H2" stroke="#BB4D00" stroke-width="1.33333" stroke-linecap="round" stroke-linejoin="round"/>
<path d="M14 10.6665H11.3333" stroke="#BB4D00" stroke-width="1.33333" stroke-linecap="round" stroke-linejoin="round"/>
<path d="M7.33333 2H6" stroke="#BB4D00" stroke-width="1.33333" stroke-linecap="round" stroke-linejoin="round"/>
</svg>
