<svg width="102" height="102" viewBox="0 0 102 102" fill="none" xmlns="http://www.w3.org/2000/svg">
<path opacity="0.5" d="M0.959991 100.96V0.959961" stroke="#E17100" stroke-opacity="0.5" stroke-width="1.92" stroke-linecap="round"/>
<path opacity="0.5" d="M0.959991 0.959961H100.96" stroke="#E17100" stroke-opacity="0.5" stroke-width="1.92" stroke-linecap="round"/>
<path opacity="0.4" d="M16.5155 89.8499V16.5166" stroke="#E17100" stroke-opacity="0.5" stroke-width="0.96" stroke-linecap="round"/>
<path opacity="0.4" d="M16.5155 16.5166H89.8489" stroke="#E17100" stroke-opacity="0.5" stroke-width="0.96" stroke-linecap="round"/>
<path opacity="0.35" d="M0.959991 56.5155C0.959991 19.4785 19.4785 0.959961 56.5155 0.959961" stroke="#E17100" stroke-opacity="0.5" stroke-width="1.44"/>
<path opacity="0.4" d="M34.2933 0.959961C26.8859 8.36737 23.1822 15.7748 23.1822 23.1822C23.1822 27.6266 24.6637 29.8488 27.6267 29.8488" stroke="#E17100" stroke-opacity="0.5" stroke-width="0.96" stroke-linecap="round"/>
<path opacity="0.4" d="M0.959991 34.2927C8.3674 26.8853 15.7748 23.1816 23.1822 23.1816C27.6267 23.1816 29.8489 24.6631 29.8489 27.6261" stroke="#E17100" stroke-opacity="0.5" stroke-width="0.96" stroke-linecap="round"/>
<path opacity="0.3" d="M7.62666 14.2933C11.3086 14.2933 14.2933 11.3085 14.2933 7.62663C14.2933 3.94473 11.3086 0.959961 7.62666 0.959961C3.94476 0.959961 0.959991 3.94473 0.959991 7.62663C0.959991 11.3085 3.94476 14.2933 7.62666 14.2933Z" stroke="#E17100" stroke-opacity="0.5" stroke-width="0.768"/>
<g opacity="0.25">
<path d="M7.62667 10.9606C9.46762 10.9606 10.96 9.46823 10.96 7.62728C10.96 5.78633 9.46762 4.29395 7.62667 4.29395C5.78572 4.29395 4.29333 5.78633 4.29333 7.62728C4.29333 9.46823 5.78572 10.9606 7.62667 10.9606Z" fill="#E17100" fill-opacity="0.3"/>
<path d="M7.62634 4.77441C9.20209 4.77441 10.4797 6.05125 10.4799 7.62695C10.4799 9.20281 9.20219 10.4805 7.62634 10.4805C6.05064 10.4803 4.7738 9.2027 4.7738 7.62695C4.77398 6.05136 6.05075 4.77459 7.62634 4.77441Z" stroke="#E17100" stroke-opacity="0.5" stroke-width="0.96"/>
</g>
<g opacity="0.3">
<path d="M45.4044 10.9606C47.2454 10.9606 48.7378 9.46823 48.7378 7.62728C48.7378 5.78633 47.2454 4.29395 45.4044 4.29395C43.5635 4.29395 42.0711 5.78633 42.0711 7.62728C42.0711 9.46823 43.5635 10.9606 45.4044 10.9606Z" fill="#E17100" fill-opacity="0.3"/>
<path d="M45.4041 4.77441C46.9799 4.77441 48.2575 6.05125 48.2576 7.62695C48.2576 9.20281 46.98 10.4805 45.4041 10.4805C43.8284 10.4803 42.5516 9.2027 42.5516 7.62695C42.5518 6.05136 43.8285 4.77459 45.4041 4.77441Z" stroke="#E17100" stroke-opacity="0.5" stroke-width="0.96"/>
</g>
<g opacity="0.3">
<path d="M7.62667 48.738C9.46762 48.738 10.96 47.2456 10.96 45.4046C10.96 43.5637 9.46762 42.0713 7.62667 42.0713C5.78572 42.0713 4.29333 43.5637 4.29333 45.4046C4.29333 47.2456 5.78572 48.738 7.62667 48.738Z" fill="#E17100" fill-opacity="0.3"/>
<path d="M7.62634 42.5518C9.20209 42.5518 10.4797 43.8286 10.4799 45.4043C10.4799 46.9801 9.20219 48.2578 7.62634 48.2578C6.05064 48.2576 4.7738 46.98 4.7738 45.4043C4.77398 43.8287 6.05075 42.5519 7.62634 42.5518Z" stroke="#E17100" stroke-opacity="0.5" stroke-width="0.96"/>
</g>
<g opacity="0.25">
<path d="M67.6267 14.2941C68.854 14.2941 69.8489 13.2991 69.8489 12.0718C69.8489 10.8445 68.854 9.84961 67.6267 9.84961C66.3994 9.84961 65.4044 10.8445 65.4044 12.0718C65.4044 13.2991 66.3994 14.2941 67.6267 14.2941Z" fill="#E17100" fill-opacity="0.3"/>
<path d="M67.6271 10.3301C68.5891 10.3303 69.3693 11.1102 69.3693 12.0723C69.3691 13.0341 68.589 13.8142 67.6271 13.8145C66.665 13.8145 65.8852 13.0343 65.8849 12.0723C65.8849 11.1101 66.6649 10.3301 67.6271 10.3301Z" stroke="#E17100" stroke-opacity="0.5" stroke-width="0.96"/>
</g>
<g opacity="0.25">
<path d="M12.0711 69.8497C13.2984 69.8497 14.2934 68.8548 14.2934 67.6275C14.2934 66.4002 13.2984 65.4053 12.0711 65.4053C10.8438 65.4053 9.84891 66.4002 9.84891 67.6275C9.84891 68.8548 10.8438 69.8497 12.0711 69.8497Z" fill="#E17100" fill-opacity="0.3"/>
<path d="M12.0716 65.8857C13.0336 65.886 13.8138 66.6659 13.8138 67.6279C13.8135 68.5898 13.0334 69.3699 12.0716 69.3701C11.1095 69.3701 10.3296 68.5899 10.3294 67.6279C10.3294 66.6657 11.1094 65.8857 12.0716 65.8857Z" stroke="#E17100" stroke-opacity="0.5" stroke-width="0.96"/>
</g>
<path opacity="0.3" d="M34.2934 0.959961V16.5155" stroke="#E17100" stroke-opacity="0.5" stroke-width="0.48"/>
<path opacity="0.3" d="M56.5155 0.959961V16.5155" stroke="#E17100" stroke-opacity="0.5" stroke-width="0.48"/>
<path opacity="0.3" d="M0.959991 34.2939H16.5155" stroke="#E17100" stroke-opacity="0.5" stroke-width="0.48"/>
<path opacity="0.3" d="M0.959991 56.5156H16.5155" stroke="#E17100" stroke-opacity="0.5" stroke-width="0.48"/>
</svg>
