<svg width="32" height="32" viewBox="0 0 32 32" fill="none" xmlns="http://www.w3.org/2000/svg">
<path d="M15.3667 3.06018C15.4251 2.94213 15.5154 2.84276 15.6273 2.77328C15.7392 2.70381 15.8683 2.66699 16 2.66699C16.1317 2.66699 16.2608 2.70381 16.3727 2.77328C16.4846 2.84276 16.5749 2.94213 16.6333 3.06018L19.7133 9.29885C19.9162 9.70947 20.2158 10.0647 20.5862 10.3341C20.9566 10.6035 21.3868 10.779 21.84 10.8455L28.728 11.8535C28.8585 11.8724 28.9811 11.9275 29.082 12.0124C29.1828 12.0974 29.2579 12.2089 29.2987 12.3343C29.3395 12.4597 29.3444 12.5941 29.3128 12.7221C29.2812 12.8501 29.2144 12.9668 29.12 13.0589L24.1387 17.9095C23.8102 18.2297 23.5644 18.6248 23.4225 19.061C23.2805 19.4972 23.2468 19.9614 23.324 20.4135L24.5 27.2669C24.523 27.3973 24.509 27.5316 24.4593 27.6544C24.4097 27.7773 24.3266 27.8837 24.2194 27.9615C24.1122 28.0394 23.9853 28.0855 23.8532 28.0947C23.721 28.1039 23.5889 28.0758 23.472 28.0135L17.3147 24.7762C16.909 24.5632 16.4576 24.4519 15.9993 24.4519C15.5411 24.4519 15.0897 24.5632 14.684 24.7762L8.52801 28.0135C8.41112 28.0754 8.27921 28.1032 8.14728 28.0939C8.01535 28.0845 7.8887 28.0383 7.78174 27.9605C7.67477 27.8827 7.59179 27.7764 7.54222 27.6538C7.49265 27.5312 7.47849 27.3971 7.50134 27.2669L8.67601 20.4149C8.7536 19.9625 8.71999 19.498 8.57806 19.0616C8.43613 18.6251 8.19015 18.2297 7.86134 17.9095L2.88001 13.0602C2.7848 12.9682 2.71733 12.8514 2.68529 12.7229C2.65325 12.5945 2.65792 12.4597 2.69878 12.3338C2.73964 12.2079 2.81503 12.096 2.91638 12.0108C3.01772 11.9257 3.14095 11.8707 3.27201 11.8522L10.1587 10.8455C10.6124 10.7795 11.0432 10.6043 11.4141 10.3348C11.785 10.0654 12.0849 9.70988 12.288 9.29885L15.3667 3.06018Z" fill="#FFB900" fill-opacity="0.2" stroke="#E17100" stroke-opacity="0.4" stroke-width="2.66667" stroke-linecap="round" stroke-linejoin="round"/>
</svg>
