<svg width="40" height="40" viewBox="0 0 40 40" fill="none" xmlns="http://www.w3.org/2000/svg">
<path d="M16.5616 25.8334C16.4128 25.2566 16.1122 24.7303 15.691 24.3091C15.2698 23.8879 14.7434 23.5872 14.1666 23.4384L3.94161 20.8018C3.76716 20.7522 3.61362 20.6472 3.50429 20.5025C3.39497 20.3578 3.33582 20.1814 3.33582 20.0001C3.33582 19.8187 3.39497 19.6424 3.50429 19.4977C3.61362 19.353 3.76716 19.2479 3.94161 19.1984L14.1666 16.5601C14.7432 16.4114 15.2694 16.111 15.6906 15.6902C16.1118 15.2693 16.4125 14.7432 16.5616 14.1668L19.1983 3.94176C19.2473 3.76662 19.3522 3.61233 19.4971 3.50241C19.642 3.3925 19.8189 3.33301 20.0008 3.33301C20.1826 3.33301 20.3595 3.3925 20.5044 3.50241C20.6493 3.61233 20.7543 3.76662 20.8033 3.94176L23.4383 14.1668C23.5871 14.7435 23.8877 15.2699 24.3089 15.6911C24.7301 16.1123 25.2565 16.413 25.8333 16.5618L36.0583 19.1968C36.2341 19.2453 36.3892 19.3501 36.4997 19.4952C36.6102 19.6403 36.67 19.8177 36.67 20.0001C36.67 20.1825 36.6102 20.3598 36.4997 20.505C36.3892 20.6501 36.2341 20.7549 36.0583 20.8034L25.8333 23.4384C25.2565 23.5872 24.7301 23.8879 24.3089 24.3091C23.8877 24.7303 23.5871 25.2566 23.4383 25.8334L20.8016 36.0584C20.7526 36.2336 20.6476 36.3879 20.5027 36.4978C20.3578 36.6077 20.181 36.6672 19.9991 36.6672C19.8172 36.6672 19.6404 36.6077 19.4955 36.4978C19.3506 36.3879 19.2456 36.2336 19.1966 36.0584L16.5616 25.8334Z" stroke="#EC003F" stroke-opacity="0.4" stroke-width="3.33333" stroke-linecap="round" stroke-linejoin="round"/>
<path d="M33.3334 5V11.6667" stroke="#EC003F" stroke-opacity="0.4" stroke-width="3.33333" stroke-linecap="round" stroke-linejoin="round"/>
<path d="M36.6667 8.3335H30" stroke="#EC003F" stroke-opacity="0.4" stroke-width="3.33333" stroke-linecap="round" stroke-linejoin="round"/>
<path d="M6.66663 28.3335V31.6668" stroke="#EC003F" stroke-opacity="0.4" stroke-width="3.33333" stroke-linecap="round" stroke-linejoin="round"/>
<path d="M8.33333 30H5" stroke="#EC003F" stroke-opacity="0.4" stroke-width="3.33333" stroke-linecap="round" stroke-linejoin="round"/>
</svg>
