<svg width="8" height="14" viewBox="0 0 8 14" fill="none" xmlns="http://www.w3.org/2000/svg">
<path d="M3.58656 9.19918C3.52523 8.81732 3.35854 8.40524 3.0865 7.96295C2.81451 7.51479 2.42492 7.09791 1.91774 6.71231C1.41642 6.32677 0.91394 6.07908 0.410309 5.96926L0.413405 5.59967C0.913037 5.48652 1.39297 5.27347 1.85321 4.96051C2.31936 4.64174 2.70979 4.2578 3.0245 3.80868C3.34517 3.34789 3.5514 2.892 3.64318 2.44102L4.01277 2.44412C4.06311 2.73788 4.16617 3.04089 4.32196 3.35314C4.4778 3.65952 4.67774 3.95454 4.92177 4.23819C5.17172 4.51603 5.45122 4.76771 5.76027 4.99324C6.22097 5.32565 6.6914 5.54666 7.17157 5.65629L7.16847 6.02588C6.84528 6.08771 6.50978 6.2169 6.16199 6.41346C5.82006 6.61007 5.50128 6.84501 5.20565 7.11827C4.91007 7.38567 4.66716 7.66818 4.47693 7.9658C4.19752 8.40347 4.02392 8.81563 3.95615 9.20228L3.58656 9.19918Z" fill="#FFB900" fill-opacity="0.7"/>
</svg>
